<svg xmlns="http://www.w3.org/2000/svg" xmlns:xlink="http://www.w3.org/1999/xlink" width="33.173" height="45.574" viewBox="0 0 33.173 45.574">
  <defs>
    <clipPath id="clip-path">
      <rect id="長方形_117" data-name="長方形 117" width="33.173" height="45.574" fill="none"/>
    </clipPath>
  </defs>
  <g id="グループ_41" data-name="グループ 41" transform="translate(0 0)">
    <g id="グループ_41-2" data-name="グループ 41" transform="translate(0 0)" clip-path="url(#clip-path)">
      <path id="パス_51" data-name="パス 51" d="M15.96,4.571a.705.705,0,0,0,.693-.723L16.587.693a.708.708,0,0,0-1.415.03l.066,3.155a.708.708,0,0,0,.723.693" transform="translate(-4.424 0)" fill="#fff"/>
      <path id="パス_52" data-name="パス 52" d="M6.8,8.17a.708.708,0,1,0,.98-1.022L5.507,4.964a.707.707,0,1,0-.979,1.022Z" transform="translate(-1.257 -1.39)" fill="#fff"/>
      <path id="パス_53" data-name="パス 53" d="M4.007,17.127a.708.708,0,0,0-.159-1.4l-3.155.066a.708.708,0,0,0,.03,1.415l3.155-.066a.7.7,0,0,0,.129-.014" transform="translate(0 -4.585)" fill="#fff"/>
      <path id="パス_54" data-name="パス 54" d="M7.149,23.684,4.964,25.962a.708.708,0,0,0,1.022.98L8.17,24.664a.708.708,0,0,0-1.022-.98" transform="translate(-1.39 -6.843)" fill="#fff"/>
      <path id="パス_55" data-name="パス 55" d="M23.992,7.989a.7.7,0,0,0,.367-.2l2.185-2.278a.708.708,0,1,0-1.022-.98L23.338,6.806a.708.708,0,0,0,.655,1.183" transform="translate(-6.748 -1.256)" fill="#fff"/>
      <path id="パス_56" data-name="パス 56" d="M26.538,15.96a.708.708,0,0,0,.723.693l3.155-.066a.708.708,0,1,0-.03-1.415l-3.155.066a.708.708,0,0,0-.693.723" transform="translate(-7.738 -4.424)" fill="#fff"/>
      <path id="パス_57" data-name="パス 57" d="M31.791,20.877a3.119,3.119,0,0,0-2.421-.4,3.062,3.062,0,0,0-1.524.906,3.134,3.134,0,0,0-5.206-.83,3.133,3.133,0,0,0-4.957-.695L16.589,14.57a3.136,3.136,0,1,0-6.143,1.269L13.8,32.06,11.977,30.6A3.453,3.453,0,1,0,7.73,36.035c.256.2,3.908,3.1,6.181,5.16a21.354,21.354,0,0,1,5.19,6.529A2.229,2.229,0,0,0,21.6,49.048l10.967-2.265a2.217,2.217,0,0,0,1.721-2.617,6.763,6.763,0,0,1,.2-3.573,13.411,13.411,0,0,0,.448-2.362,34.343,34.343,0,0,0-.349-7.225l0-.045c-.3-2.54-1.343-7.836-1.388-8.067a3.11,3.11,0,0,0-1.4-2.016m1.378,10.25.006.045a33.274,33.274,0,0,1,.343,6.938,12.082,12.082,0,0,1-.407,2.127,8.109,8.109,0,0,0-.213,4.215.8.8,0,0,1-.621.944L21.31,47.662a.812.812,0,0,1-.9-.488c-1.23-2.921-4.287-5.888-5.543-7.028s-2.885-2.493-4.04-3.437c-.653-.534-1.223-.993-1.588-1.284l-.47-.375c-.071-.056-.138-.109-.205-.154l0,0a2.037,2.037,0,1,1,2.5-3.21l.017.014,3.363,2.7a.708.708,0,0,0,1.137-.694L11.833,15.553a1.721,1.721,0,1,1,3.37-.7l1.623,7.858.145.7,1.09,5.28a.708.708,0,1,0,1.387-.286l-1.091-5.281-.145-.7a1.72,1.72,0,1,1,3.37-.7l.321,1.551.115.558.8,3.869a.708.708,0,1,0,1.386-.286l-.8-3.87L23.289,23a1.721,1.721,0,1,1,3.37-.7l.4,1.918.008.037.511,2.473a.708.708,0,1,0,1.386-.287l-.511-2.472-.008-.037a1.766,1.766,0,0,1,1.264-2.076A1.721,1.721,0,0,1,31.8,23.174c.011.055,1.076,5.468,1.37,7.953" transform="translate(-1.832 -3.519)" fill="#fff"/>
    </g>
  </g>
</svg>
