<svg width="57" height="54" viewBox="0 0 57 54" fill="none" xmlns="http://www.w3.org/2000/svg">
<g clip-path="url(#clip0)">
<path d="M28.5 9C30.9853 9 33 6.98528 33 4.5C33 2.01472 30.9853 0 28.5 0C26.0147 0 24 2.01472 24 4.5C24 6.98528 26.0147 9 28.5 9Z" fill="#005C42"/>
<path d="M36.9755 31H20V18.8726C20 14.5267 23.7968 11 28.5 11C33.1787 11 37 14.5267 37 18.8953V31H36.9755Z" fill="#005C42"/>
<path d="M48.5 9C50.9853 9 53 6.98528 53 4.5C53 2.01472 50.9853 0 48.5 0C46.0147 0 44 2.01472 44 4.5C44 6.98528 46.0147 9 48.5 9Z" fill="#005C42"/>
<path d="M56.9755 31H40V18.8726C40 14.5267 43.7968 11 48.5 11C53.1787 11 57 14.5267 57 18.8953V31H56.9755Z" fill="#005C42"/>
<path d="M8.5 9C10.9853 9 13 6.98528 13 4.5C13 2.01472 10.9853 0 8.5 0C6.01472 0 4 2.01472 4 4.5C4 6.98528 6.01472 9 8.5 9Z" fill="#005C42"/>
<path d="M16.9755 31H0V18.8726C0 14.5267 3.79683 11 8.5 11C13.1787 11 17 14.5267 17 18.8953V31H16.9755Z" fill="#005C42"/>
<path d="M14.56 41.95L13.26 41.92C13.27 42.09 13.25 42.33 13.24 42.52C13.22 42.69 13.2 42.87 13.18 43.06C13.05 43.06 12.92 43.06 12.78 43.06C12.17 43.06 11.29 42.98 10.94 42.92L10.97 44.08C11.44 44.1 12.22 44.14 12.74 44.14C12.85 44.14 12.95 44.14 13.06 44.14C13.02 44.55 12.99 44.97 12.97 45.4C11.57 46.06 10.51 47.4 10.51 48.69C10.51 49.7 11.13 50.14 11.86 50.14C12.39 50.14 12.92 49.98 13.41 49.74C13.45 49.88 13.5 50.02 13.54 50.15L14.69 49.8C14.61 49.56 14.53 49.31 14.46 49.06C15.22 48.43 16.02 47.38 16.56 46.02C17.25 46.29 17.6 46.82 17.6 47.42C17.6 48.4 16.82 49.38 14.89 49.59L15.55 50.64C18.01 50.27 18.84 48.9 18.84 47.48C18.84 46.32 18.07 45.41 16.91 45.03C16.97 44.84 17.05 44.63 17.09 44.52L15.87 44.23C15.86 44.38 15.82 44.63 15.78 44.83C15.72 44.83 15.66 44.83 15.6 44.83C15.11 44.83 14.59 44.9 14.11 45.01C14.12 44.71 14.15 44.4 14.18 44.1C15.41 44.05 16.75 43.93 17.73 43.75L17.72 42.59C16.62 42.85 15.54 42.98 14.32 43.03C14.35 42.83 14.39 42.65 14.42 42.48C14.46 42.33 14.5 42.15 14.56 41.95ZM11.69 48.43C11.69 47.86 12.19 47.1 12.94 46.59C12.96 47.28 13.04 47.97 13.15 48.59C12.79 48.8 12.43 48.92 12.15 48.92C11.83 48.92 11.69 48.75 11.69 48.43ZM14.07 46.1V46.07C14.46 45.95 14.92 45.86 15.45 45.85C15.11 46.66 14.66 47.27 14.19 47.76C14.11 47.26 14.07 46.71 14.07 46.1ZM23.5 42.03L22.25 42.54C22.7 43.6 23.18 44.67 23.64 45.52C22.68 46.23 21.98 47.06 21.98 48.16C21.98 49.88 23.49 50.43 25.48 50.43C26.78 50.43 27.84 50.33 28.69 50.18L28.71 48.74C27.82 48.96 26.47 49.11 25.44 49.11C24.05 49.11 23.36 48.73 23.36 48.01C23.36 47.31 23.92 46.74 24.75 46.19C25.66 45.6 26.92 45.02 27.54 44.71C27.91 44.52 28.23 44.35 28.53 44.17L27.84 43.01C27.58 43.23 27.29 43.4 26.91 43.62C26.44 43.89 25.57 44.32 24.75 44.8C24.35 44.03 23.88 43.07 23.5 42.03ZM35.2 41.53V46.36C35.2 46.5 35.14 46.54 34.96 46.54C34.78 46.55 34.16 46.55 33.59 46.53C33.77 46.87 33.96 47.41 34.01 47.76C34.82 47.76 35.43 47.73 35.86 47.53C36.29 47.35 36.41 47.01 36.41 46.38V41.53H35.2ZM37.35 43.2C38.16 44.25 39.02 45.65 39.32 46.57L40.54 45.92C40.19 44.96 39.27 43.62 38.46 42.63L37.35 43.2ZM37.81 45.73C37 48.4 35.18 49.35 31.88 49.72C32.13 50.03 32.39 50.53 32.51 50.91C36.12 50.34 38.11 49.18 39.09 46.1L37.81 45.73ZM32.92 42.78C32.61 43.83 31.93 45.18 31.1 45.97C31.4 46.13 31.9 46.45 32.18 46.67C33.04 45.79 33.77 44.35 34.25 43.09L32.92 42.78ZM45.11 42.07L43.5 42.05C43.59 42.45 43.63 42.93 43.63 43.4C43.63 44.26 43.53 46.89 43.53 48.23C43.53 49.94 44.59 50.66 46.23 50.66C48.51 50.66 49.93 49.32 50.57 48.36L49.66 47.26C48.94 48.35 47.89 49.3 46.24 49.3C45.46 49.3 44.86 48.97 44.86 47.96C44.86 46.72 44.94 44.48 44.98 43.4C45 43 45.05 42.49 45.11 42.07Z" fill="#005C42"/>
</g>
<defs>
<clipPath id="clip0">
<rect width="57" height="54" fill="white"/>
</clipPath>
</defs>
</svg>
