<?xml version="1.0" encoding="utf-8"?>
<!-- Generator: Adobe Illustrator 26.2.1, SVG Export Plug-In . SVG Version: 6.00 Build 0)  -->
<svg version="1.1" id="レイヤー_1" xmlns="http://www.w3.org/2000/svg" xmlns:xlink="http://www.w3.org/1999/xlink" x="0px"
	 y="0px" viewBox="0 0 350 90" style="enable-background:new 0 0 350 90;" xml:space="preserve">
<style type="text/css">
	.st0{fill:#005C42;}
</style>
<path class="st0" d="M0,89.1h6.5v-1H1V15.3h5.5v-0.9H0V89.1z"/>
<path class="st0" d="M85.7,14.4h-5.5v0.9h5.5v72.8h-5.5v1h5.5h1h5.5v-1h-5.5V15.3h5.5v-0.9h-5.5H85.7z"/>
<path class="st0" d="M178.4,89.1h6.5v-1h-5.5V15.3h5.5v-0.9h-6.5V89.1z"/>
<path class="st0" d="M166,15.3h5.4v72.8H166v1h6.4V14.4H166V15.3z"/>
<path class="st0" d="M264.1,14.4h-5.5v0.9h5.5v72.8h-5.5v1h5.5h1h5.5v-1h-5.5V15.3h5.5v-0.9h-5.5H264.1z"/>
<path class="st0" d="M343.4,14.4v0.9h5.4v72.8h-5.4v1h6.4V14.4H343.4z"/>
<path class="st0" d="M3.8,4.8C3.4,5.2,3,5.4,2.4,5.4c-0.7,0-1.2-0.2-1.7-0.7C0.3,4.2,0.1,3.6,0.1,2.8c0-0.5,0.1-1,0.3-1.4
	s0.5-0.8,0.9-1C1.8,0.1,2.3,0,2.8,0s1,0.1,1.4,0.4C4.5,0.6,4.8,1,5.1,1.5c0.2,0.5,0.3,1,0.3,1.7v0.6c0,1.3-0.3,2.3-1,3.1
	C3.8,7.5,2.9,7.9,1.7,8H1.3V6.7h0.3C3,6.6,3.7,6,3.8,4.8z M2.8,4.2C3,4.2,3.3,4.1,3.4,4c0.2-0.1,0.3-0.3,0.4-0.5V2.9
	c0-0.5-0.1-0.9-0.3-1.2C3.3,1.4,3.1,1.2,2.7,1.2C2.4,1.2,2.2,1.4,2,1.7s-0.3,0.6-0.3,1s0.1,0.8,0.3,1C2.2,4.1,2.4,4.2,2.8,4.2z
	 M7.2,7.1c0-0.2,0.1-0.4,0.2-0.6C7.6,6.3,7.8,6.3,8,6.3c0.3,0,0.5,0.1,0.6,0.2c0.2,0.2,0.3,0.4,0.3,0.6c0,0.2-0.1,0.4-0.2,0.6
	C8.5,7.9,8.3,8,8.1,8C7.8,8,7.6,7.9,7.4,7.7C7.3,7.6,7.2,7.4,7.2,7.1z M7.2,2.8c0-0.2,0.1-0.4,0.2-0.6C7.6,2,7.8,1.9,8.1,1.9
	c0.3,0,0.5,0.1,0.6,0.2C8.9,2.3,9,2.5,9,2.7S8.9,3.1,8.8,3.3C8.5,3.5,8.3,3.6,8.1,3.6c-0.3,0-0.5-0.1-0.6-0.2C7.3,3.2,7.2,3,7.2,2.8
	z M15.9,4.7c0,1.1-0.2,1.9-0.7,2.5c-0.4,0.6-1.1,0.9-2,0.9c-0.8,0-1.5-0.3-1.9-0.8c-0.4-0.6-0.7-1.4-0.7-2.4V3.3
	c0-1.1,0.2-1.9,0.7-2.5s1.1-0.8,2-0.8c0.8,0,1.5,0.3,1.9,0.8c0.4,0.6,0.7,1.4,0.7,2.4V4.7z M14.4,3.1c0-0.6-0.1-1.1-0.3-1.4
	c-0.2-0.3-0.4-0.4-0.8-0.4c-0.4,0-0.6,0.1-0.8,0.4S12.2,2.4,12.2,3v1.9c0,0.6,0.1,1.1,0.3,1.4c0.2,0.3,0.5,0.5,0.8,0.5
	c0.4,0,0.7-0.1,0.8-0.4C14.3,6,14.4,5.6,14.4,5V3.1z M22.8,4.7c0,1.1-0.2,1.9-0.7,2.5C21.7,7.7,21,8,20.2,8s-1.5-0.3-1.9-0.8
	c-0.4-0.6-0.7-1.4-0.7-2.4V3.3c0-1.1,0.2-1.9,0.7-2.5s1.1-0.8,2-0.8s1.5,0.3,1.9,0.8c0.4,0.6,0.7,1.4,0.7,2.4v1.5H22.8z M21.2,3.1
	c0-0.6-0.1-1.1-0.3-1.4c-0.2-0.3-0.4-0.4-0.8-0.4s-0.6,0.1-0.8,0.4C19.2,2,19.1,2.4,19.1,3v1.9c0,0.6,0.1,1.1,0.3,1.4
	c0.2,0.3,0.5,0.5,0.8,0.5c0.4,0,0.7-0.1,0.8-0.4C21.1,6,21.2,5.6,21.2,5V3.1z"/>
<path class="st0" d="M75.4,7.9h-1.5v-6l-1.8,0.6V1.3l3.2-1.2h0.2L75.4,7.9L75.4,7.9z M83.9,7.9h-5.3V6.8l2.5-2.7
	c0.3-0.4,0.6-0.7,0.8-1s0.3-0.5,0.3-0.8s-0.1-0.6-0.3-0.8s-0.4-0.3-0.7-0.3c-0.3,0-0.6,0.1-0.8,0.4c-0.2,0.2-0.3,0.6-0.3,0.9h-1.6
	c0-0.5,0.1-0.9,0.3-1.3c0.2-0.4,0.5-0.7,1-0.9C80.1,0.1,80.6,0,81.1,0c0.8,0,1.4,0.2,1.9,0.6c0.4,0.4,0.7,0.9,0.7,1.6
	c0,0.4-0.1,0.8-0.3,1.2s-0.5,0.9-1,1.4l-1.8,1.9H84L83.9,7.9L83.9,7.9z M85.5,7.1c0-0.2,0.1-0.4,0.2-0.6c0.2-0.2,0.4-0.2,0.6-0.2
	c0.3,0,0.5,0.1,0.6,0.2c0.2,0.2,0.3,0.4,0.3,0.6c0,0.2-0.1,0.4-0.2,0.6C86.9,7.9,86.6,8,86.4,8c-0.3,0-0.5-0.1-0.6-0.2
	C85.6,7.6,85.5,7.4,85.5,7.1z M85.5,2.8c0-0.2,0.1-0.4,0.2-0.6C85.9,2,86.1,2,86.3,2c0.3,0,0.5,0.1,0.6,0.2c0.2,0.2,0.3,0.4,0.3,0.6
	S87.1,3.2,87,3.4c-0.2,0.1-0.4,0.2-0.6,0.2c-0.3,0-0.5-0.1-0.6-0.2C85.6,3.2,85.5,3,85.5,2.8z M94.3,4.7c0,1.1-0.2,1.9-0.7,2.5
	c-0.4,0.6-1.1,0.9-2,0.9c-0.8,0-1.5-0.3-1.9-0.8C89.2,6.6,89,5.8,89,4.8V3.3c0-1.1,0.2-1.9,0.7-2.5s1.1-0.8,2-0.8
	c0.8,0,1.5,0.3,1.9,0.8c0.4,0.6,0.7,1.4,0.7,2.4V4.7z M92.7,3.1c0-0.6-0.1-1.1-0.3-1.4S92,1.3,91.6,1.3c-0.4,0-0.6,0.1-0.8,0.4
	C90.6,2,90.6,2.4,90.5,3v1.9c0,0.6,0.1,1.1,0.3,1.4c0.2,0.3,0.5,0.5,0.8,0.5c0.4,0,0.7-0.1,0.8-0.4C92.6,6,92.7,5.6,92.7,5V3.1z
	 M101.1,4.7c0,1.1-0.2,1.9-0.7,2.5C100,7.7,99.3,8,98.5,8c-0.8,0-1.5-0.3-1.9-0.8c-0.4-0.6-0.7-1.4-0.7-2.4V3.3
	c0-1.1,0.2-1.9,0.7-2.5C97,0.3,97.6,0,98.5,0c0.8,0,1.5,0.3,1.9,0.8c0.4,0.6,0.7,1.4,0.7,2.4V4.7z M99.6,3.1c0-0.6-0.1-1.1-0.3-1.4
	c-0.2-0.3-0.4-0.4-0.8-0.4s-0.6,0.1-0.8,0.4C97.5,2,97.4,2.4,97.4,3v1.9c0,0.6,0.1,1.1,0.3,1.4c0.2,0.3,0.5,0.5,0.8,0.5
	c0.4,0,0.7-0.1,0.8-0.4C99.5,6,99.6,5.6,99.6,5V3.1z"/>
<path class="st0" d="M146.9,7.9h-1.5v-6l-1.8,0.6V1.3l3.2-1.2h0.2v7.8H146.9z M154.6,5h0.9v1.2h-0.9v1.7H153V6.2h-3.2l-0.1-1
	l3.2-5.1h1.6V5H154.6z M151.3,5h1.7V2.2l-0.1,0.2L151.3,5z M157,7.1c0-0.2,0.1-0.4,0.2-0.6c0.2-0.2,0.4-0.2,0.6-0.2
	c0.3,0,0.5,0.1,0.6,0.2c0.2,0.2,0.3,0.4,0.3,0.6c0,0.2-0.1,0.4-0.2,0.6c-0.2,0.1-0.4,0.2-0.6,0.2c-0.3,0-0.5-0.1-0.6-0.2
	C157.1,7.6,157,7.4,157,7.1z M157,2.8c0-0.2,0.1-0.4,0.2-0.6c0.2-0.2,0.4-0.2,0.6-0.2c0.3,0,0.5,0.1,0.6,0.2
	c0.2,0.2,0.3,0.4,0.3,0.6s-0.1,0.4-0.2,0.6c-0.2,0.1-0.4,0.2-0.6,0.2c-0.3,0-0.5-0.1-0.6-0.2C157.1,3.2,157,3,157,2.8z M165.7,4.7
	c0,1.1-0.2,1.9-0.7,2.5c-0.4,0.6-1.1,0.9-2,0.9c-0.8,0-1.5-0.3-1.9-0.8c-0.4-0.5-0.7-1.4-0.7-2.4V3.3c0-1.1,0.2-1.9,0.7-2.5
	s1.1-0.8,2-0.8c0.8,0,1.5,0.3,1.9,0.8c0.4,0.6,0.7,1.4,0.7,2.4V4.7z M164.2,3.1c0-0.6-0.1-1.1-0.3-1.4c-0.2-0.3-0.4-0.4-0.8-0.4
	c-0.4,0-0.6,0.1-0.8,0.4S162,2.4,162,3v1.9c0,0.6,0.1,1.1,0.3,1.4c0.2,0.3,0.5,0.5,0.8,0.5c0.4,0,0.7-0.1,0.8-0.4
	c0.2-0.3,0.3-0.7,0.3-1.4V3.1z M172.6,4.7c0,1.1-0.2,1.9-0.7,2.5c-0.4,0.6-1.1,0.9-2,0.9c-0.8,0-1.5-0.3-1.9-0.8s-0.7-1.4-0.7-2.4
	V3.3c0-1.1,0.2-1.9,0.7-2.5s1.1-0.8,2-0.8s1.5,0.3,1.9,0.8c0.4,0.6,0.7,1.4,0.7,2.4V4.7z M171,3.1c0-0.6-0.1-1.1-0.3-1.4
	s-0.4-0.4-0.8-0.4c-0.4,0-0.6,0.1-0.8,0.4C169,2,168.9,2.4,168.9,3v1.9c0,0.6,0.1,1.1,0.3,1.4c0.2,0.3,0.5,0.5,0.8,0.5
	c0.4,0,0.7-0.1,0.8-0.4C170.9,6,171,5.6,171,5V3.1z"/>
<path class="st0" d="M182.4,7.9h-1.5v-6L179,2.5V1.3l3.2-1.2h0.2V7.9z M185.7,4.1l0.4-4h4.4v1.3h-3.1l-0.2,1.7
	c0.4-0.2,0.8-0.3,1.2-0.3c0.7,0,1.3,0.2,1.7,0.7c0.4,0.5,0.6,1.1,0.6,1.9c0,0.5-0.1,1-0.3,1.4c-0.2,0.4-0.5,0.7-0.9,0.9
	c-0.4,0.2-0.9,0.3-1.4,0.3s-0.9-0.1-1.3-0.3c-0.4-0.2-0.7-0.5-1-0.8c-0.2-0.3-0.4-0.7-0.4-1.2h1.5c0,0.3,0.1,0.6,0.3,0.8
	s0.5,0.3,0.8,0.3s0.6-0.1,0.8-0.4c0.2-0.3,0.3-0.6,0.3-1.1c0-0.4-0.1-0.8-0.3-1c-0.2-0.2-0.5-0.4-0.9-0.4c-0.4,0-0.7,0.1-0.9,0.3
	l-0.2,0.1L185.7,4.1z M192.4,7.1c0-0.2,0.1-0.4,0.2-0.6c0.2-0.2,0.4-0.2,0.6-0.2c0.3,0,0.5,0.1,0.6,0.2c0.2,0.2,0.3,0.4,0.3,0.6
	c0,0.2-0.1,0.4-0.2,0.6c-0.2,0.1-0.4,0.2-0.6,0.2c-0.3,0-0.5-0.1-0.6-0.2C192.5,7.6,192.4,7.4,192.4,7.1z M192.4,2.8
	c0-0.2,0.1-0.4,0.2-0.6C192.8,2,193,2,193.2,2c0.3,0,0.5,0.1,0.6,0.2c0.2,0.2,0.3,0.4,0.3,0.6s-0.1,0.4-0.2,0.6
	c-0.2,0.1-0.4,0.2-0.6,0.2c-0.3,0-0.5-0.1-0.6-0.2C192.5,3.2,192.4,3,192.4,2.8z M201.2,4.7c0,1.1-0.2,1.9-0.7,2.5
	c-0.4,0.6-1.1,0.9-2,0.9s-1.5-0.3-1.9-0.8c-0.4-0.6-0.7-1.4-0.7-2.4V3.3c0-1.1,0.2-1.9,0.7-2.5s1.1-0.8,2-0.8c0.9,0,1.5,0.3,1.9,0.8
	c0.4,0.6,0.7,1.4,0.7,2.4V4.7z M199.6,3.1c0-0.6-0.1-1.1-0.3-1.4s-0.4-0.4-0.8-0.4s-0.6,0.1-0.8,0.4s-0.3,0.7-0.3,1.3v1.9
	c0,0.6,0.1,1.1,0.3,1.4c0.2,0.3,0.5,0.5,0.8,0.5c0.4,0,0.7-0.1,0.8-0.4c0.2-0.3,0.3-0.7,0.3-1.4V3.1z M208,4.7
	c0,1.1-0.2,1.9-0.7,2.5c-0.4,0.6-1.1,0.9-2,0.9c-0.8,0-1.5-0.3-1.9-0.8c-0.4-0.6-0.7-1.4-0.7-2.4V3.3c0-1.1,0.2-1.9,0.7-2.5
	s1.1-0.8,2-0.8c0.9,0,1.5,0.3,1.9,0.8c0.4,0.6,0.7,1.4,0.7,2.4V4.7z M206.5,3.1c0-0.6-0.1-1.1-0.3-1.4s-0.4-0.4-0.8-0.4
	c-0.4,0-0.6,0.1-0.8,0.4c-0.2,0.3-0.3,0.7-0.3,1.3v1.9c0,0.6,0.1,1.1,0.3,1.4c0.2,0.3,0.5,0.5,0.8,0.5c0.4,0,0.7-0.1,0.8-0.4
	c0.2-0.3,0.3-0.7,0.3-1.4V3.1z"/>
<path class="st0" d="M252.4,7.9h-1.5v-6L249,2.5V1.3l3.2-1.2h0.2V7.9z M259.1,4.8c-0.4,0.4-0.9,0.6-1.4,0.6c-0.7,0-1.2-0.2-1.7-0.7
	c-0.4-0.5-0.6-1.1-0.6-1.9c0-0.5,0.1-1,0.3-1.4s0.5-0.8,0.9-1C257,0.1,257.5,0,258,0s1,0.1,1.4,0.4s0.7,0.6,0.9,1.1
	c0.2,0.5,0.3,1,0.3,1.7v0.6c0,1.3-0.3,2.3-1,3.1C259,7.6,258,8,256.9,8.1h-0.4V6.7h0.3C258.2,6.6,259,6,259.1,4.8z M258,4.2
	c0.3,0,0.5-0.1,0.6-0.2c0.2-0.1,0.3-0.3,0.4-0.5V2.9c0-0.5-0.1-0.9-0.3-1.2c-0.2-0.3-0.5-0.4-0.8-0.4c-0.3,0-0.6,0.1-0.8,0.4
	c-0.2,0.3-0.3,0.6-0.3,1.1c0,0.4,0.1,0.8,0.3,1C257.4,4.1,257.7,4.2,258,4.2z M262.4,7.1c0-0.2,0.1-0.4,0.2-0.6
	c0.2-0.2,0.4-0.2,0.6-0.2c0.3,0,0.5,0.1,0.6,0.2c0.2,0.2,0.3,0.4,0.3,0.6c0,0.2-0.1,0.4-0.2,0.6c-0.2,0.1-0.4,0.2-0.6,0.2
	c-0.3,0-0.5-0.1-0.6-0.2C262.5,7.6,262.4,7.4,262.4,7.1z M262.4,2.8c0-0.2,0.1-0.4,0.2-0.6C262.8,2,263,2,263.2,2
	c0.3,0,0.5,0.1,0.6,0.2c0.2,0.2,0.3,0.4,0.3,0.6s-0.1,0.4-0.2,0.6c-0.2,0.1-0.4,0.2-0.6,0.2c-0.3,0-0.5-0.1-0.6-0.2
	C262.5,3.2,262.4,3,262.4,2.8z M271.2,4.7c0,1.1-0.2,1.9-0.7,2.5c-0.4,0.6-1.1,0.9-2,0.9c-0.8,0-1.5-0.3-1.9-0.8
	c-0.4-0.6-0.7-1.4-0.7-2.4V3.3c0-1.1,0.2-1.9,0.7-2.5s1.1-0.8,2-0.8c0.8,0,1.5,0.3,1.9,0.8c0.4,0.6,0.7,1.4,0.7,2.4V4.7z M269.6,3.1
	c0-0.6-0.1-1.1-0.3-1.4c-0.2-0.3-0.4-0.4-0.8-0.4s-0.6,0.1-0.8,0.4c-0.2,0.3-0.3,0.7-0.3,1.3v1.9c0,0.6,0.1,1.1,0.3,1.4
	c0.2,0.3,0.5,0.5,0.8,0.5c0.4,0,0.7-0.1,0.8-0.4c0.2-0.3,0.3-0.7,0.3-1.4V3.1z M278,4.7c0,1.1-0.2,1.9-0.7,2.5
	c-0.4,0.6-1.1,0.9-2,0.9c-0.8,0-1.5-0.3-1.9-0.8s-0.7-1.4-0.7-2.4V3.3c0-1.1,0.2-1.9,0.7-2.5s1.1-0.8,2-0.8s1.5,0.3,1.9,0.8
	c0.4,0.6,0.7,1.4,0.7,2.4V4.7z M276.5,3.1c0-0.6-0.1-1.1-0.3-1.4c-0.2-0.3-0.4-0.4-0.8-0.4s-0.6,0.1-0.8,0.4
	c-0.2,0.3-0.3,0.7-0.3,1.3v1.9c0,0.6,0.1,1.1,0.3,1.4c0.2,0.3,0.5,0.5,0.8,0.5c0.4,0,0.7-0.1,0.8-0.4c0.2-0.3,0.3-0.7,0.3-1.4V3.1z"
	/>
<path class="st0" d="M325.9,7.9h-5.3V6.8l2.5-2.7c0.3-0.4,0.6-0.7,0.8-1c0.2-0.3,0.3-0.5,0.3-0.8s-0.1-0.6-0.3-0.8
	c-0.2-0.2-0.4-0.3-0.7-0.3c-0.3,0-0.6,0.1-0.8,0.4c-0.2,0.2-0.3,0.6-0.3,0.9h-1.6c0-0.5,0.1-0.9,0.3-1.3c0.2-0.4,0.6-0.7,1-0.9
	c0.4-0.2,0.9-0.3,1.4-0.3c0.8,0,1.4,0.2,1.9,0.6c0.4,0.4,0.7,0.9,0.7,1.6c0,0.4-0.1,0.8-0.3,1.2s-0.5,0.9-1,1.4l-1.8,1.9h3.4v1.2
	H325.9z M334.4,7.1c0-0.2,0.1-0.4,0.2-0.6c0.2-0.2,0.4-0.2,0.6-0.2c0.3,0,0.5,0.1,0.6,0.2c0.2,0.2,0.3,0.4,0.3,0.6
	c0,0.2-0.1,0.4-0.2,0.6c-0.2,0.1-0.4,0.2-0.6,0.2c-0.3,0-0.5-0.1-0.6-0.2C334.5,7.6,334.4,7.4,334.4,7.1z M334.4,2.8
	c0-0.2,0.1-0.4,0.2-0.6C334.8,2,335,2,335.2,2c0.3,0,0.5,0.1,0.6,0.2c0.2,0.2,0.3,0.4,0.3,0.6s-0.1,0.4-0.2,0.6
	c-0.2,0.1-0.4,0.2-0.6,0.2c-0.3,0-0.5-0.1-0.6-0.2C334.5,3.2,334.4,3,334.4,2.8z M343.2,4.7c0,1.1-0.2,1.9-0.7,2.5
	c-0.4,0.6-1.1,0.9-2,0.9c-0.8,0-1.5-0.3-1.9-0.8s-0.7-1.4-0.7-2.4V3.3c0-1.1,0.2-1.9,0.7-2.5s1.1-0.8,2-0.8c0.8,0,1.5,0.3,1.9,0.8
	c0.4,0.6,0.7,1.4,0.7,2.4V4.7z M341.6,3.1c0-0.6-0.1-1.1-0.3-1.4c-0.2-0.3-0.4-0.4-0.8-0.4s-0.6,0.1-0.8,0.4
	c-0.2,0.3-0.3,0.7-0.3,1.3v1.9c0,0.6,0.1,1.1,0.3,1.4c0.2,0.3,0.5,0.5,0.8,0.5c0.4,0,0.7-0.1,0.8-0.4c0.2-0.3,0.3-0.7,0.3-1.4V3.1z
	 M332.7,4.7c0,1.1-0.2,1.9-0.7,2.5c-0.4,0.6-1.1,0.9-2,0.9c-0.8,0-1.5-0.3-1.9-0.8s-0.7-1.4-0.7-2.4V3.3c0-1.1,0.2-1.9,0.7-2.5
	s1.1-0.8,2-0.8c0.8,0,1.5,0.3,1.9,0.8c0.4,0.6,0.7,1.4,0.7,2.4V4.7z M331.1,3.1c0-0.6-0.1-1.1-0.3-1.4c-0.2-0.3-0.4-0.4-0.8-0.4
	s-0.6,0.1-0.8,0.4C329,2,328.9,2.4,328.9,3v1.9c0,0.6,0.1,1.1,0.3,1.4c0.2,0.3,0.5,0.5,0.8,0.5c0.4,0,0.7-0.1,0.8-0.4
	c0.2-0.3,0.3-0.7,0.3-1.4V3.1z M350,4.7c0,1.1-0.2,1.9-0.7,2.5c-0.4,0.6-1.1,0.9-2,0.9c-0.8,0-1.5-0.3-1.9-0.8
	c-0.4-0.6-0.7-1.4-0.7-2.4V3.3c0-1.1,0.2-1.9,0.7-2.5s1.1-0.8,2-0.8c0.8,0,1.5,0.3,1.9,0.8c0.4,0.6,0.7,1.4,0.7,2.4V4.7z M348.5,3.1
	c0-0.6-0.1-1.1-0.3-1.4c-0.2-0.3-0.4-0.4-0.8-0.4s-0.6,0.1-0.8,0.4c-0.2,0.3-0.3,0.7-0.3,1.3v1.9c0,0.6,0.1,1.1,0.3,1.4
	c0.2,0.3,0.5,0.5,0.8,0.5c0.4,0,0.7-0.1,0.8-0.4c0.2-0.3,0.3-0.7,0.3-1.4V3.1z"/>
</svg>
