<svg width="19" height="22" viewBox="0 0 19 22" fill="none" xmlns="http://www.w3.org/2000/svg">
<path d="M16.3885 8.93368C16.3885 4.97889 13.2864 2.17895 9.36487 2.17895C5.44333 2.17895 2.34122 4.97889 2.34122 8.93368C2.34122 11.4831 4.6239 14.8604 9.36487 18.8915C14.1058 14.8604 16.3885 11.4831 16.3885 8.93368ZM9.36487 0C14.2814 0 18.7297 3.50811 18.7297 8.93368C18.7297 12.5507 15.6042 16.8324 9.36487 21.7895C3.12552 16.8324 0 12.5507 0 8.93368C0 3.50811 4.44831 0 9.36487 0Z" fill="#255843"/>
<path d="M10.5482 13.9389C10.5482 13.3195 10.0461 12.8173 9.42668 12.8173H9.3285C8.7091 12.8173 8.20698 13.3195 8.20698 13.9389C8.20698 14.5583 8.7091 15.0604 9.3285 15.0604H9.42668C10.0461 15.0604 10.5482 14.5583 10.5482 13.9389Z" fill="#255843"/>
<path d="M10.5482 4.48607H8.20698V11.789H10.5482V4.48607Z" fill="#255843"/>
</svg>
