<svg width="23" height="28" viewBox="0 0 23 28" fill="none" xmlns="http://www.w3.org/2000/svg">
<path d="M11.5 0.34375C5.75 0.34375 0 1.0625 0 6.09375V19.75C0 22.5244 2.25688 24.7812 5.03125 24.7812L2.875 26.9375V27.6562H20.125V26.9375L17.9688 24.7812C20.7431 24.7812 23 22.5244 23 19.75V6.09375C23 1.0625 17.8538 0.34375 11.5 0.34375ZM19.6362 4.65625H3.49312C4.37 3.90875 6.45437 3.21875 11.5 3.21875C16.8331 3.21875 18.86 3.88 19.6362 4.65625ZM10.0625 7.53125V11.8438H2.875V7.53125H10.0625ZM12.9375 7.53125H20.125V11.8438H12.9375V7.53125ZM17.9688 21.9062H5.03125C3.83812 21.9062 2.875 20.9431 2.875 19.75V14.7188H20.125V19.75C20.125 20.9431 19.1619 21.9062 17.9688 21.9062Z" fill="#255843"/>
<path d="M6.46875 20.4688C7.65961 20.4688 8.625 19.5034 8.625 18.3125C8.625 17.1216 7.65961 16.1562 6.46875 16.1562C5.27789 16.1562 4.3125 17.1216 4.3125 18.3125C4.3125 19.5034 5.27789 20.4688 6.46875 20.4688Z" fill="#255843"/>
<path d="M16.5312 20.4688C17.7221 20.4688 18.6875 19.5034 18.6875 18.3125C18.6875 17.1216 17.7221 16.1562 16.5312 16.1562C15.3404 16.1562 14.375 17.1216 14.375 18.3125C14.375 19.5034 15.3404 20.4688 16.5312 20.4688Z" fill="#255843"/>
</svg>
